 <!DOCTYPE svg PUBLIC "-//W3C//DTD SVG 1.1//EN" "http://www.w3.org/Graphics/SVG/1.1/DTD/svg11.dtd">
<svg xmlns="http://www.w3.org/2000/svg" id="a" viewBox="0 0 865.76 682.89">
  <defs>
<style xmlns="http://www.w3.org/1999/xhtml">*, ::after, ::before { box-sizing: border-box; }
img, svg { vertical-align: middle; }
</style>
<style xmlns="http://www.w3.org/1999/xhtml">*, body, html { -webkit-font-smoothing: antialiased; }
img, svg { max-width: 100%; }
</style>
</defs>
<g>
    <polygon points="729.18 629.74 96.08 629.74 149.61 558.55 769.68 558.55 729.18 629.74" fill="#fff"/>
    <path d="M729.18,630.24H96.08c-.19,0-.36-.11-.45-.28-.08-.17-.07-.37,.05-.52l53.52-71.19c.09-.12,.24-.2,.4-.2H769.68c.18,0,.34,.09,.43,.25,.09,.15,.09,.34,0,.5l-40.49,71.19c-.09,.16-.25,.25-.43,.25Zm-632.1-1H728.89l39.92-70.19H149.86l-52.77,70.19Z" fill="#2f2e41" data-secondary="true"/>
  </g>
  <g>
    <polygon points="340.76 433.94 279.39 556.34 340.76 568.95 386.71 478.77 340.76 433.94" fill="#fff"/>
    <path d="M340.76,569.45s-.07,0-.1,0l-61.38-12.61c-.15-.03-.28-.13-.35-.27-.07-.14-.07-.3,0-.44l61.38-122.4c.07-.14,.21-.24,.36-.27,.16-.03,.32,.02,.43,.14l45.95,44.83c.16,.15,.2,.39,.1,.58l-45.95,90.18c-.09,.17-.26,.27-.45,.27Zm-60.64-13.47l60.36,12.4,45.61-89.51-45.2-44.09-60.78,121.21Z" fill="#2f2e41" data-secondary="true"/>
  </g>
  <g>
    <path d="M340.76,433.94s8.52,26.61,48.8,49.96l27.66-35.93-42.4-64.53-34.06,50.5Z" fill="#0071f2" data-primary="true"/>
    <path d="M389.69,484.55l-.38-.22c-39.99-23.17-48.94-49.97-49.03-50.24l-.07-.23,34.62-51.33,43,65.46-28.14,36.56Zm-48.38-50.54c.95,2.62,10.75,27.45,48.12,49.23l27.17-35.3-41.79-63.61-33.5,49.67Z" fill="#2f2e41" data-secondary="true"/>
  </g>
  <g>
    <path d="M571.59,312.45s48.51-26.4,92.06,5.44c0,0,27.38,18.5,46.79,54.48,0,0,17.79,26.28-15.36,59.43l-40.26,94.2v32.57h-248.31s.54-46.68-19.54-80.33c0,0-24.42-30.39-3.26-79.79,0,0,17.63-85.21,54.95-90.64l24.46-6.49,108.47,11.14Z" fill="#0071f2" data-primary="true"/>
    <path d="M655.31,559.05h-249.32v-.51c.01-.47,.31-46.93-19.46-80.07-.21-.25-24.32-31.12-3.31-80.19,.25-1.17,4.72-22.06,13.5-43.33,8.33-20.18,22.35-44.82,41.86-47.66l24.5-6.5h.09s108.32,11.14,108.32,11.14c2.93-1.53,50.3-25.27,92.46,5.55,.26,.17,27.69,18.97,46.93,54.64,.15,.22,17.59,26.92-15.38,59.95l-40.19,94.01v32.96Zm-248.31-1h247.31v-32.17l40.41-94.45c32.45-32.45,15.48-58.53,15.3-58.79-19.14-35.49-46.38-54.16-46.65-54.34-42.8-31.29-91.06-5.67-91.54-5.41l-.14,.07-.15-.02-108.38-11.13-24.38,6.47c-36.61,5.33-54.41,89.41-54.59,90.26l-.03,.1c-20.8,48.52,2.94,78.97,3.19,79.28,18.84,31.57,19.63,74.97,19.65,80.14Z" fill="#2f2e41" data-secondary="true"/>
  </g>
  <g>
    <rect x="438.4" y="76.53" width="110.73" height="175.8" rx="55.37" ry="55.37" fill="#fff"/>
    <path d="M493.77,252.83c-30.81,0-55.87-25.06-55.87-55.87v-65.06c0-30.81,25.06-55.87,55.87-55.87s55.87,25.06,55.87,55.87v65.06c0,30.81-25.06,55.87-55.87,55.87Zm0-175.8c-30.25,0-54.87,24.61-54.87,54.87v65.06c0,30.25,24.61,54.87,54.87,54.87s54.87-24.61,54.87-54.87v-65.06c0-30.25-24.61-54.87-54.87-54.87Z" fill="#2f2e41" data-secondary="true"/>
  </g>
  <g>
    <path d="M489.6,82.8c2.05,7.12,7.67,16.13,20.92,26.07l24.16,20.65s11.86,6.99,10.54,34.91l-.29,3.47c-.79,9.4-2.43,18.71-4.76,27.86-3.42,13.41-6.54,36.72,7.35,51.64,.77,.83,1.61,1.6,2.46,2.36,4.29,3.81,23.61,21.89,24.65,39.22,.04,.66,.01,1.32-.04,1.97-.27,3.43-1.04,14.72-3.24,22.05,0,0,48.57-26.19,92.06,5.44,0,0,15.82,10.54,32.07,31.63,0,0,8.35-20.21-17.57-50.96,0,0-21.53-21.53-37.78-70.73,0,0-11.86-29-21.97-81.28,0,0-12.74-86.99-76.44-92.7,0,0-25.53-4.81-42.07,4.46-8.49,4.75-12.75,14.6-10.05,23.95Z" fill="#fff"/>
    <path d="M695.48,350.56c-.15,0-.3-.07-.4-.19-16.02-20.78-31.79-31.42-31.95-31.52-42.75-31.09-91.07-5.67-91.55-5.41-.18,.09-.4,.08-.55-.05-.16-.13-.22-.34-.16-.53,2.08-6.95,2.88-17.47,3.18-21.43l.04-.51c.06-.77,.07-1.36,.04-1.91-1.03-17.22-20.57-35.4-24.48-38.87-.77-.68-1.66-1.5-2.49-2.39-14.18-15.23-10.76-39.18-7.46-52.1,2.38-9.34,3.98-18.69,4.75-27.78l.29-3.47c1.28-27.21-10.18-34.37-10.3-34.44l-24.23-20.7c-11.41-8.56-18.51-17.42-21.08-26.31h0c-2.74-9.51,1.49-19.6,10.29-24.52,16.51-9.24,42.15-4.56,42.41-4.51,33.09,2.96,52.24,28.15,62.46,48.76,11.05,22.27,14.35,44.14,14.38,44.36,9.97,51.6,21.82,80.87,21.93,81.16,16.04,48.56,37.46,70.35,37.67,70.57,25.85,30.66,17.77,51.3,17.68,51.51-.07,.17-.22,.28-.4,.31-.02,0-.04,0-.07,0Zm-80.4-48.16c15.06,0,32.24,3.71,48.62,15.62,.14,.09,15.67,10.56,31.59,30.98,1.17-4.15,4.67-22.97-17.77-49.59-.19-.18-21.77-22.14-37.88-70.9-.11-.26-11.98-29.61-21.98-81.34-.04-.24-3.31-21.97-14.3-44.1-10.11-20.37-29.03-45.26-61.7-48.19-.3-.05-25.59-4.67-41.78,4.4-8.39,4.7-12.43,14.31-9.81,23.37,2.51,8.68,9.49,17.37,20.74,25.81l24.19,20.67c.42,.24,12.04,7.42,10.72,35.31l-.29,3.48c-.77,9.14-2.38,18.54-4.77,27.94-3.25,12.72-6.63,36.29,7.23,51.17,.8,.86,1.68,1.66,2.42,2.33,3.96,3.52,23.76,21.95,24.81,39.56,.04,.6,.02,1.23-.04,2.04l-.04,.51c-.29,3.79-1.03,13.53-2.91,20.55,4.28-2.07,21.45-9.64,42.95-9.64Z" fill="#2f2e41" data-secondary="true"/>
  </g>
  <g>
    <path d="M438.4,144.02s-18.86-40.34-2.23-66.67c2.82-4.46,6.68-8.15,11.14-10.97,8.92-5.64,28.31-14.78,52.33-7.53,0,0-11.05,5.11-10.85,17.9,0,0-47.82,3.04-50.39,55.14v12.12Z" fill="#fff"/>
    <path d="M438.41,144.52c-.19,0-.37-.11-.45-.29-.19-.41-18.79-40.89-2.2-67.15,2.78-4.4,6.58-8.15,11.29-11.13,9.4-5.94,28.74-14.83,52.75-7.58,.2,.06,.34,.24,.35,.44,.01,.21-.1,.4-.29,.49-.11,.05-10.75,5.14-10.56,17.44,0,.27-.2,.49-.47,.51-.12,0-12.01,.84-24.04,7.99-11.08,6.58-24.56,20.01-25.88,46.68v12.1c0,.23-.16,.44-.39,.49-.04,0-.07,.01-.11,.01Zm43.29-87.86c-15.27,0-27.33,5.85-34.12,10.14-4.58,2.9-8.28,6.54-10.98,10.81-14.08,22.29-2.28,55.17,1.31,63.96v-9.68c1.34-27.16,15.1-40.84,26.4-47.54,10.87-6.44,21.63-7.83,23.98-8.06,.06-10.24,7.28-15.61,10.06-17.3-5.87-1.66-11.46-2.34-16.66-2.34Z" fill="#2f2e41" data-secondary="true"/>
  </g>
  <g>
    <path d="M474.86,249.01s2.55,22.33-12,52.84l25.92,39.89s37.76,12.32,63.11-12.54c.61-.6,1.19-1.22,1.76-1.85,2.41-2.64,10.63-11.29,17.68-14.36l1.57-7.04s-11.28-22.59-10.92-43.61c0,0-4.15-4.97-12.01-12.59,0,0-8.03-5.39-11.47-20.17,0,0-14.12,21.15-41.26,22.64,0,0-14.52,.38-22.39-3.2Z" fill="#fff"/>
    <path d="M510.61,345.22c-12.45,0-21.78-2.95-21.97-3.01-.11-.04-.2-.11-.26-.2l-25.92-39.89c-.09-.15-.11-.33-.03-.49,14.32-30.02,11.97-52.34,11.95-52.56-.02-.18,.06-.36,.2-.46,.15-.11,.34-.13,.5-.05,7.67,3.49,22.03,3.16,22.17,3.16,26.54-1.45,40.71-22.2,40.85-22.41,.11-.17,.31-.25,.51-.21,.2,.04,.35,.18,.4,.38,3.35,14.39,11.18,19.81,11.26,19.87,7.85,7.61,12.07,12.64,12.11,12.69,.08,.09,.12,.21,.12,.33-.35,20.66,10.76,43.16,10.87,43.38,.05,.1,.07,.22,.04,.33l-1.57,7.04c-.04,.16-.14,.29-.29,.35-6.97,3.03-15.17,11.66-17.51,14.23-.65,.71-1.2,1.3-1.78,1.87-12.8,12.55-28.86,15.67-41.64,15.67Zm-21.5-3.91c2.75,.84,38.45,11.05,62.44-12.47,.57-.56,1.11-1.13,1.74-1.83,2.35-2.58,10.52-11.18,17.62-14.37l1.47-6.62c-1-2.07-11.17-23.57-10.9-43.5-.73-.86-4.83-5.6-11.86-12.42-.26-.16-7.78-5.35-11.35-19.36-3.08,4.06-17.13,20.67-41,21.97-.59,.02-13.86,.32-21.85-2.92,.28,4.36,.76,25.14-11.99,52.01l25.67,39.5Z" fill="#2f2e41" data-secondary="true"/>
  </g>
  <g>
    <path d="M561.99,262.34s-.93,19.38,10.92,43.61c0,0,1.43-7.97,1.68-15.02,0,0,1.33-11.09-12.6-28.6Z" fill="#fff"/>
    <path d="M572.91,306.46c-.19,0-.36-.11-.45-.28-11.77-24.07-10.98-43.66-10.97-43.86,0-.21,.15-.39,.35-.45,.2-.07,.42,0,.54,.16,13.9,17.47,12.76,28.51,12.7,28.97-.25,6.96-1.67,14.96-1.68,15.04-.04,.21-.21,.38-.42,.41-.02,0-.05,0-.07,0Zm-10.43-42.68c.06,4.76,.99,21.02,10.2,40.54,.42-2.66,1.23-8.3,1.41-13.39,.02-.15,1.07-10.68-11.61-27.14Z" fill="#2f2e41" data-secondary="true"/>
  </g>
  <g>
    <path d="M450.71,231.76s-2.95,27.21-6.25,45.37l21.29,18.26s10.6-24.83,9.11-46.38c0,0-13.35-3.92-24.15-17.25Z" fill="#fff"/>
    <path d="M465.75,295.89c-.12,0-.23-.04-.33-.12l-21.29-18.26c-.13-.12-.2-.29-.17-.47,3.26-17.94,6.22-45.06,6.25-45.33,.02-.2,.16-.37,.36-.43,.2-.06,.4,0,.53,.17,10.58,13.05,23.77,17.05,23.91,17.09,.2,.06,.34,.24,.36,.45,1.48,21.42-9.05,46.36-9.15,46.61-.06,.15-.19,.25-.35,.29-.04,0-.08,.01-.11,.01Zm-20.75-18.96l20.55,17.62c1.61-3.98,10.05-25.97,8.84-45.18-2.1-.7-13.63-4.95-23.31-16.4-.6,5.39-3.21,28.12-6.07,43.95Z" fill="#2f2e41" data-secondary="true"/>
  </g>
  <g>
    <path d="M690.36,383.28s18.55-.17,18.55,9.93c0,0-.19,17.3-15.26,29.51l-3.3-39.44Z" fill="#2f2e41" data-secondary="true"/>
    <path d="M693.23,423.71l-3.42-40.92h.54c.47-.02,11.73-.06,16.73,4.9,1.55,1.53,2.33,3.39,2.33,5.53,0,.18-.37,17.68-15.44,29.9l-.73,.59Zm-2.33-39.92l3.17,37.94c13.99-11.89,14.34-28.35,14.34-28.52,0-1.85-.68-3.47-2.04-4.81-4.11-4.07-13.17-4.55-15.47-4.6Z" fill="#2f2e41" data-secondary="true"/>
  </g>
  <path d="M667.5,487.25c-.26,0-.53-.1-.72-.31-15.97-16.74-46.55-34.11-46.86-34.29-.48-.27-.65-.88-.38-1.36,.27-.48,.88-.65,1.36-.38,.31,.17,31.14,17.69,47.32,34.65,.38,.4,.37,1.03-.03,1.41-.19,.18-.44,.28-.69,.28Z" fill="#ec1c24"/>
  <path d="M612.04,445.94c-.24,0-.45-.17-.49-.41-8.16-46.45,1.1-85.19,1.19-85.57,.07-.27,.34-.43,.6-.37s.43,.34,.37,.6c-.09,.38-9.3,38.93-1.18,85.16,.05,.27-.13,.53-.41,.58-.03,0-.06,0-.09,0Z" fill="#2f2e41" data-secondary="true"/>
  <path d="M438.41,149.67s-.04,0-.06,0l-10.42-1.31c-.27-.03-.47-.28-.43-.56s.29-.47,.56-.43l10.42,1.31c.27,.03,.47,.28,.43,.56-.03,.25-.25,.44-.5,.44Z" fill="#2f2e41" data-secondary="true"/>
  <path d="M486.85,149.02c-.17,0-.34-.09-.43-.24-1.45-2.43-3.28-3.86-5.42-4.24-3.91-.71-7.67,2.25-7.7,2.28-.21,.17-.53,.14-.7-.08-.17-.22-.14-.53,.08-.7,.17-.13,4.13-3.27,8.5-2.49,2.45,.44,4.5,2.03,6.11,4.72,.14,.24,.06,.54-.17,.69-.08,.05-.17,.07-.26,.07Z" fill="#2f2e41" data-secondary="true"/>
  <path d="M545.14,155.23s-.07,0-.1,0l-11.16-2.25c-.27-.05-.45-.32-.39-.59,.05-.27,.32-.45,.59-.39l11.16,2.25c.27,.05,.45,.32,.39,.59-.05,.24-.26,.4-.49,.4Z" fill="#2f2e41" data-secondary="true"/>
  <g>
    <path d="M474.86,249.01s1.01,9.3-2.48,25.26c0,0,37.59,1.74,46.9-28.19,0,0-17.55,11.65-44.42,2.94Z" fill="#2f2e41" data-secondary="true"/>
    <path d="M473.32,274.79c-.59,0-.93-.01-.96-.01l-.59-.03,.13-.58c3.43-15.7,2.48-25.01,2.47-25.1l-.08-.77,.73,.24c26.3,8.53,43.82-2.76,43.99-2.88l1.17-.78-.42,1.34c-8.48,27.26-40.47,28.56-46.44,28.56Zm-.32-1c4.75,.06,36.36-.67,45.4-26.62-4.33,2.34-20.44,9.6-42.98,2.55,.15,2.5,.36,11.09-2.42,24.07Z" fill="#2f2e41" data-secondary="true"/>
  </g>
  <g>
    <path d="M455.75,360.56s-40.02-27.59-49.35-77.08c0,0-1.22-8.92,5.27-7.57,0,0,12.65,8.88,23.76,33.04,0,0-1.77-17.91-23.97-41.6-2.28-2.43-4.72-4.71-7.24-6.89-3.58-3.11-10.14-10.15-5.93-17.18,.2-.33,.48-.6,.81-.78,1.34-.74,5.01-1.47,12.03,5.55l28.67,23.8,21.91,15.33,13.3,38.22-19.26,35.16Z" fill="#fff"/>
    <path d="M455.75,361.06c-.1,0-.2-.03-.28-.09-.4-.28-40.29-28.27-49.56-77.4-.03-.23-.66-5.08,1.68-7.26,1.02-.96,2.43-1.25,4.18-.89,.07,.01,.13,.04,.19,.08,.12,.08,11.51,8.25,22.08,29.4-1.84-6.59-7.29-20.51-22.94-37.2-2.04-2.18-4.4-4.42-7.2-6.85-3.3-2.87-10.51-10.34-6.03-17.81,.24-.4,.58-.73,1-.96,1.68-.93,5.56-1.43,12.62,5.63l28.63,23.77,21.87,15.31c.09,.06,.15,.15,.19,.25l13.3,38.22c.05,.13,.03,.28-.03,.4l-19.26,35.16c-.07,.12-.19,.21-.32,.25-.04,0-.08,.01-.12,.01Zm-45.33-84.79c-.88,0-1.6,.26-2.15,.77-1.97,1.84-1.39,6.33-1.38,6.37,8.65,45.86,44.25,73.17,48.69,76.41l18.88-34.47-13.18-37.85-21.77-15.24-28.7-23.82c-6.88-6.88-10.31-6.13-11.47-5.5-.26,.14-.47,.35-.62,.6-3.94,6.58,1.96,13.19,5.83,16.54,2.83,2.46,5.21,4.72,7.28,6.93,22.06,23.54,24.08,41.71,24.1,41.89,.02,.24-.13,.47-.37,.53-.24,.06-.48-.05-.58-.27-10.45-22.73-22.41-31.97-23.51-32.78-.37-.07-.72-.11-1.04-.11Z" fill="#2f2e41" data-secondary="true"/>
  </g>
  <g>
    <polygon points="288.92 504.83 266.51 504.83 267.77 470.78 287.02 470.78 288.92 504.83" fill="#fff"/>
    <path d="M288.92,505.33h-22.42c-.14,0-.27-.06-.36-.15-.09-.1-.14-.23-.14-.37l1.27-34.04c.01-.27,.23-.48,.5-.48h19.25c.27,0,.48,.21,.5,.47l1.9,34.04c0,.14-.04,.27-.14,.37s-.23,.16-.36,.16Zm-21.9-1h21.37l-1.84-33.04h-18.29l-1.23,33.04Z" fill="#2f2e41" data-secondary="true"/>
  </g>
  <g>
    <path d="M336.26,472.95c-14.84,4.35-30.53,6.71-46.77,6.77-92.77,.31-168.42-75.08-168.42-167.85,0-74.82,48.95-138.2,116.57-159.87,5.33-1.71,11.04,1.26,12.77,6.59h0c1.75,5.4-1.25,11.15-6.66,12.89-59.11,19-101.95,74.3-102.28,139.65-.4,81.51,65.92,148.18,147.44,148.18,14.43,0,28.37-2.07,41.55-5.94,5.64-1.65,11.5,1.75,12.83,7.47h0c1.23,5.26-1.86,10.59-7.04,12.11Z" fill="#2f2e41" data-secondary="true"/>
    <path d="M288.92,480.22c-44.79,0-86.95-17.45-118.78-49.17-31.96-31.86-49.56-74.18-49.56-119.18,0-36.39,11.42-71.02,33.03-100.16,21.19-28.57,50.2-49.38,83.89-60.18,5.57-1.78,11.58,1.31,13.4,6.91,.88,2.72,.65,5.61-.65,8.15-1.32,2.57-3.56,4.48-6.33,5.36-60.65,19.5-101.61,75.42-101.93,139.18-.19,39.29,15.03,76.34,42.86,104.31,27.83,27.97,64.79,43.37,104.07,43.37,14.09,0,28.02-1.99,41.41-5.92,2.86-.84,5.86-.48,8.44,1.03,2.57,1.5,4.35,3.92,5.02,6.81,1.29,5.53-1.96,11.11-7.39,12.7h0c-15.17,4.45-30.95,6.74-46.91,6.79-.19,0-.39,0-.58,0Zm-48.2-328.2c-.97,0-1.95,.15-2.92,.46-69.52,22.28-116.23,86.33-116.23,159.39,0,44.73,17.5,86.8,49.27,118.47,31.64,31.53,73.56,48.88,118.08,48.88,.19,0,.38,0,.57,0,15.86-.05,31.55-2.32,46.63-6.75h0c4.92-1.44,7.86-6.5,6.69-11.51-.61-2.62-2.23-4.82-4.55-6.17-2.33-1.36-5.05-1.69-7.65-.93-13.48,3.95-27.51,5.96-41.69,5.96-39.55,0-76.76-15.51-104.78-43.66-28.02-28.16-43.35-65.46-43.15-105.02,.32-64.18,41.56-120.49,102.62-140.12,2.51-.81,4.55-2.54,5.74-4.87,1.18-2.3,1.39-4.93,.59-7.39-1.33-4.1-5.14-6.73-9.23-6.73Z" fill="#2f2e41" data-secondary="true"/>
  </g>
  <g>
    <path d="M238,167.53h0c3.42,0,6.2,2.78,6.2,6.2v14.55h-12.4v-14.55c0-3.42,2.78-6.2,6.2-6.2Z" transform="translate(-51.74 111.97) rotate(-23.96)" fill="#fff"/>
    <path d="M236.55,190.4c-.06,0-.12-.01-.18-.03-.12-.05-.22-.14-.28-.26l-5.91-13.3c-.73-1.63-.77-3.46-.13-5.12,.64-1.67,1.9-2.99,3.53-3.72,1.64-.73,3.46-.77,5.12-.13,1.67,.64,2.99,1.9,3.72,3.53l5.91,13.3c.11,.25,0,.55-.25,.66l-11.33,5.03c-.06,.03-.13,.04-.2,.04Zm-.25-22.01c-.77,0-1.56,.16-2.31,.49-1.39,.62-2.46,1.74-3,3.16s-.51,2.97,.11,4.36l5.71,12.84,10.42-4.63-5.71-12.84c-.94-2.12-3.03-3.38-5.22-3.38Z" fill="#2f2e41" data-secondary="true"/>
  </g>
  <g>
    <path d="M192.98,570.44s5.29-7.05,38.98-15.36c5.72-1.41,11.14-3.85,15.88-7.35,7.53-5.56,13.98-13.5,13.77-30.15v-12.62c0-4.72,3.83-8.55,8.55-8.55h15.74c4.72,0,8.55,3.83,8.55,8.55v13.43s-.75,30.17,31.13,38.72c1.99,.54,4.03,.91,6.07,1.19,7.25,1.01,30.12,4.47,32.34,8.49l-6.86,9.4-122.21,11.31-34.38-8.68-7.56-8.38Z" fill="#eaebeb"/>
    <path d="M234.88,588.01l-.08-.02-34.52-8.72-7.94-8.8,.25-.33c.22-.29,5.78-7.28,39.26-15.54,5.84-1.44,11.13-3.89,15.7-7.27,6.83-5.05,13.79-12.53,13.56-29.74v-12.63c0-4.99,4.06-9.05,9.05-9.05h15.74c4.99,0,9.05,4.06,9.05,9.05v13.43c0,.31-.36,29.89,30.76,38.24,1.79,.48,3.76,.87,6.01,1.18,9.08,1.26,30.44,4.63,32.71,8.75l.15,.28-7.18,9.84-.22,.02-122.3,11.32Zm-34.07-9.64l34.14,8.63,121.9-11.28,6.52-8.93c-2.39-2.96-17.84-6.05-31.8-7.99-2.29-.32-4.3-.71-6.13-1.2-31.9-8.56-31.51-38.91-31.5-39.22v-13.42c0-4.44-3.61-8.05-8.05-8.05h-15.74c-4.44,0-8.05,3.61-8.05,8.05v12.62c.23,17.66-6.93,25.35-13.97,30.55-4.68,3.46-10.08,5.96-16.05,7.43-29.26,7.22-36.98,13.47-38.42,14.88l7.16,7.93Z" fill="#2f2e41" data-secondary="true"/>
  </g>
  <g>
    <path d="M420.81,319.2c0,78.03-63.27,141.3-141.3,141.3s-141.3-63.27-141.3-141.3c0-24.07,6.02-46.73,16.63-66.57,11.72-21.9,29.05-40.36,50.06-53.44,0,0,.02,0,.05-.03,5.18-3.24,10.58-6.14,16.18-8.68,0,0,0,0,.02,0,17.79-8.08,37.55-12.58,58.36-12.58,1.64,0,3.27,.03,4.9,.08,17.74,.61,34.66,4.48,50.16,11.05,7.05,2.98,13.8,6.53,20.21,10.57,3.8,2.39,7.48,4.97,11.02,7.71,22.83,17.64,40.13,42.11,48.8,70.35,4.03,13.13,6.21,27.08,6.21,41.53Z" fill="#fff"/>
    <path d="M279.51,461c-78.19,0-141.8-63.61-141.8-141.8,0-23.3,5.77-46.4,16.69-66.81,11.73-21.93,29.1-40.47,50.23-53.63,.04-.02,.07-.04,.11-.05,5.14-3.22,10.6-6.15,16.17-8.68,.02,0,.03-.01,.05-.02,18.44-8.37,38.13-12.61,58.54-12.61,1.7,0,3.36,.03,4.92,.08,17.45,.6,34.38,4.33,50.34,11.09,6.99,2.96,13.82,6.53,20.28,10.61,3.75,2.36,7.47,4.97,11.06,7.73,23.41,18.08,40.34,42.49,48.97,70.6,4.13,13.46,6.23,27.48,6.23,41.68,0,78.19-63.61,141.8-141.8,141.8ZM205.14,199.63c-20.97,13.06-38.21,31.47-49.86,53.24-10.84,20.26-16.57,43.2-16.57,66.33,0,77.64,63.16,140.8,140.8,140.8s140.8-63.16,140.8-140.8c0-14.1-2.08-28.02-6.18-41.39-8.57-27.91-25.38-52.15-48.62-70.1-3.56-2.75-7.26-5.33-10.99-7.68-6.42-4.05-13.2-7.6-20.14-10.54-15.84-6.71-32.66-10.42-49.98-11.01-1.55-.06-3.19-.08-4.88-.08-20.28,0-39.84,4.22-58.16,12.54-.01,0-.03,.01-.05,.02-5.52,2.51-10.94,5.41-16.09,8.63-.02,.01-.04,.03-.07,.04Z" fill="#2f2e41" data-secondary="true"/>
  </g>
  <g>
    <path d="M346.97,215.64c4.74,9.76-4.49,13.89-10.98,15.54-3.3,.84-6.8,.05-9.46-2.07h0c-2.42-1.92-3.92-4.77-4.14-7.85l-.58-8.27c.09-4.06,3.41-6.3,5.62-7.34,1.82-.86,3.47-2.06,4.68-3.67,3.44-4.56,3.38-9.32,2.46-12.95,7.05,2.98,13.8,6.53,20.21,10.57-13.24,6.62-7.81,16.03-7.81,16.03Z" fill="#0071f2" data-primary="true"/>
    <path d="M333.38,232.01c-2.56,0-5.1-.87-7.16-2.5-2.52-2-4.1-4.99-4.33-8.21l-.58-8.27c.1-4.44,3.74-6.81,5.91-7.83,1.9-.9,3.41-2.08,4.5-3.52,2.76-3.66,3.55-7.88,2.37-12.52l-.25-.98,.93,.39c6.99,2.96,13.82,6.53,20.28,10.61l.75,.47-.79,.4c-4.48,2.24-7.26,5.04-8.24,8.29-1.16,3.83,.62,7,.64,7.04l.02,.03c1.57,3.23,1.78,6.14,.61,8.64-1.99,4.28-7.58,6.5-11.92,7.6-.9,.23-1.82,.34-2.74,.34Zm1.89-42.12c.66,3.36,.58,7.97-2.76,12.4-1.18,1.57-2.82,2.86-4.87,3.82-1.96,.92-5.25,3.04-5.33,6.9l.58,8.22c.21,2.93,1.65,5.67,3.95,7.49,2.55,2.02,5.92,2.76,9.03,1.97,4.13-1.05,9.43-3.13,11.25-7.05,1.03-2.21,.83-4.83-.6-7.77-.17-.3-1.97-3.65-.73-7.79,1-3.34,3.68-6.2,7.97-8.51-5.92-3.69-12.14-6.94-18.5-9.69Z" fill="#2f2e41" data-secondary="true"/>
  </g>
  <g>
    <path d="M414.6,277.67c-4.21,1.42-9.38,.78-9.38,.78-6.24,1.01-10.3,4.89-10.3,4.89-11.52,12.39-35.11-9.45-35.11-9.45-19.24-19.75-9.45-35.61-9.45-35.61,4.56-10.3,4.43-15.53,4.43-15.53,.2-11.64,11.02-15.43,11.02-15.43,22.83,17.64,40.13,42.11,48.8,70.35Z" fill="#0071f2" data-primary="true"/>
    <path d="M385.86,287.7c-11.7,0-25.64-12.74-26.39-13.44-19.31-19.82-9.64-36.08-9.54-36.24,4.42-9.98,4.35-15.21,4.35-15.26,.21-11.88,11.25-15.87,11.36-15.91l.26-.09,.21,.17c23.41,18.08,40.34,42.49,48.97,70.6l.14,.46-.46,.16c-4.05,1.37-8.86,.89-9.53,.81-5.98,.99-9.92,4.71-9.96,4.75-2.67,2.88-5.94,3.99-9.41,3.99Zm-20.14-79.81c-1.59,.65-10.27,4.69-10.44,14.87,0,.2,.08,5.45-4.47,15.73-.13,.22-9.37,15.84,9.36,35.06,.21,.2,23.34,21.35,34.39,9.46,.19-.18,4.26-4.02,10.58-5.05h.07s.07,0,.07,0c.05,0,4.74,.57,8.7-.61-8.58-27.62-25.26-51.62-48.25-69.46Z" fill="#2f2e41" data-secondary="true"/>
  </g>
  <g>
    <path d="M284.41,177.99c-5.33,8.67-18.06,7.97-18.06,7.97-7.22,.31-7.53,8.32-7.53,8.32-.32,11.92-4.55,11.77-4.55,11.77-5.81,.94-10.2-6.28-10.2-6.28-8.45-11.52-22.33-9.38-22.92-9.28,17.79-8.08,37.55-12.58,58.36-12.58,1.64,0,3.27,.03,4.9,.08Z" fill="#eaebeb"/>
    <path d="M253.13,206.64c-5.4,0-9.31-6.32-9.49-6.61-8.22-11.21-21.84-9.14-22.42-9.05l-3.7,.6,3.41-1.55c18.45-8.38,38.15-12.63,58.57-12.63,1.7,0,3.36,.03,4.92,.08l.86,.03-.45,.73c-5.42,8.82-17.98,8.24-18.51,8.21-6.62,.29-6.99,7.53-7,7.84-.19,7.12-1.79,10.09-3.1,11.31-1,.94-1.88,.93-1.97,.93-.38,.06-.75,.09-1.12,.09Zm-28.78-16.86c4.83,0,13.93,1.25,20.12,9.7,.07,.1,4.32,6.96,9.72,6.08,.13,0,3.84-.16,4.13-11.29,0-.09,.42-8.48,8.01-8.81,.17,0,11.81,.54,17.17-7-1.28-.04-2.62-.05-3.99-.05-19.31,0-37.97,3.83-55.53,11.38,.12,0,.24,0,.37,0Z" fill="#2f2e41" data-secondary="true"/>
  </g>
  <g>
    <path d="M342.48,342.81l-.18,.3c-2.62,4.24-4.73,8.76-6.51,13.41-1.2,3.13-3.82,7.58-9.59,12.34,0,0-7.33,5.43-12.49,17.91l-5.15,10.85s-7.33,12.76-12.75,20.36c0,0-3.53,3.82-2.99,12.49,0,0,1.72,9.49-3.89,7.31,0,0-5.9-.54-9.42-24.15,0,0-1.15-14.93-1.79-26.6,0,0-.64-6.99-7.93-9.31-2.94-.94-6.14-.74-9.02,.39l-2.69,1.06s-7.06,2.44-13.84-3.53l-11.91-12.75s-7.63-8.14-4.64-17.1c0,0,3.25-8.69-1.9-9.5,0,0-6.79,.27-13.57-5.43,0,0-2.99-4.88-21.99-4.61,0,0-26.05,3.8-24.15-22.25,0,0,1.9-15.47-4.88-8.96,0,0-6.79,6.24-8.69-5.97,0,0-2.13-21.02,2.33-36.42h0c11.72-21.92,29.05-40.37,50.06-53.45,0,0,.02,0,.05-.03,.55-.24,5.4-2.18,7.69,3.41,0,0,.54,4.85-9.97,11.32,0,0-5.24,3.5-1.57,6.55,.83,.69,1.87,1.09,2.96,1.2,2.72,.3,9.08,.42,15.59-3.44,0,0,12.4-6.74,20.75-.54,0,0,8.36,6.2-3.5,17.52,0,0-8.09,6.74-13.2,15.63,0,0-10.25,25.6-25.87,23.99,0,0-5.12-1.61-9.16,7.55l-6.47,20.21s-3.23,11.01,8.62,13.05c0,0,14.18,1.99,25.48,7.45,1.37,.66,2.63,1.5,3.84,2.42,3.65,2.77,14.58,9,27.37-3.58,0,0,12.47-18,38.89-12.08,7.83,1.75,15.12,5.36,21.45,10.29l7.51,5.86s9.5,8.65,19.81,3.51c0,0,4.64-2.18,8.42,1.63,0,0,4.88,3.27-1.1,11.68Z" fill="#0071f2" data-primary="true"/>
    <path d="M290.43,438.61c-.5,0-1.05-.11-1.64-.34-.8-.16-6.43-2.09-9.78-24.56-.02-.18-1.17-15.1-1.8-26.64-.02-.25-.71-6.67-7.58-8.87-2.74-.88-5.82-.74-8.68,.38l-2.69,1.06c-.32,.11-7.43,2.48-14.36-3.62l-11.95-12.79c-.32-.34-7.8-8.46-4.75-17.6,.03-.07,1.89-5.12,.44-7.59-.41-.7-1.05-1.11-1.95-1.25-.18,.01-6.96,.21-13.81-5.54l-.11-.12s-3.23-4.64-21.55-4.37c-.42,.07-11.9,1.65-19.14-5.09-4.23-3.94-6.09-9.89-5.52-17.7,.42-3.42,.47-9.11-1.16-9.93-.79-.4-2,.52-2.88,1.36-.12,.11-2.69,2.44-5.31,1.52-2.11-.74-3.54-3.36-4.22-7.78-.02-.24-2.08-21.25,2.32-36.57v-.05l.06-.12c11.73-21.93,29.1-40.47,50.23-53.63l.11-.05c.42-.19,2.65-1.07,4.87-.17,1.52,.62,2.69,1.91,3.48,3.84l.03,.13c.02,.21,.45,5.24-10.21,11.8,0,0-2.53,1.72-2.63,3.62-.04,.77,.33,1.46,1.12,2.13,.73,.6,1.66,.98,2.69,1.09,2.45,.27,8.81,.47,15.28-3.38,.54-.29,12.79-6.83,21.3-.51,.11,.08,2.8,2.12,3.04,6,.24,3.81-1.95,7.94-6.5,12.28-.11,.09-8.1,6.81-13.11,15.52-.39,1-10.54,25.89-26.36,24.23l-.1-.02c-.19-.06-4.77-1.32-8.55,7.27l-6.45,20.16s-1.29,4.57,.95,8.17c1.39,2.22,3.84,3.65,7.28,4.24,.13,.02,14.37,2.06,25.61,7.5,1.25,.6,2.5,1.39,3.93,2.47,3.92,2.98,14.37,8.6,26.71-3.54,.07-.11,12.91-18.13,39.35-12.21,7.75,1.74,15.04,5.23,21.65,10.38l7.51,5.86c.12,.11,9.4,8.38,19.28,3.46,.06-.03,5.01-2.29,9,1.72h0s1.49,1.03,1.91,3.33c.47,2.55-.52,5.57-2.94,8.98l-.17,.29c-2.42,3.91-4.53,8.27-6.47,13.33-1.15,3.01-3.78,7.63-9.74,12.54-.09,.07-7.3,5.53-12.34,17.72l-5.17,10.88c-.09,.16-7.42,12.9-12.8,20.43-.07,.08-3.41,3.85-2.9,12.17,.1,.54,.98,5.79-1.19,7.59-.47,.39-1.03,.58-1.68,.58Zm-24.53-61.98c1.38,0,2.75,.21,4.04,.62,7.52,2.4,8.27,9.67,8.27,9.75,.63,11.55,1.78,26.45,1.79,26.6,3.37,22.59,8.92,23.68,8.98,23.69l.12,.03c1.05,.41,1.83,.39,2.38-.06,1.46-1.21,1.1-5.24,.84-6.7-.55-8.84,2.96-12.76,3.11-12.92,5.31-7.44,12.61-20.14,12.69-20.27l5.14-10.82c5.14-12.44,12.34-17.88,12.64-18.1,5.77-4.76,8.31-9.21,9.42-12.11,1.96-5.12,4.1-9.54,6.55-13.5l.2-.33c2.22-3.13,3.19-5.97,2.79-8.21-.34-1.91-1.52-2.74-1.57-2.77-3.57-3.58-7.89-1.61-7.93-1.59-10.48,5.22-20.26-3.51-20.36-3.6l-7.48-5.83c-6.5-5.06-13.65-8.49-21.26-10.2-25.75-5.77-38.24,11.7-38.37,11.87-13.33,13.11-24.86,6.14-28.08,3.69-1.37-1.04-2.57-1.79-3.76-2.37-11.1-5.37-25.19-7.39-25.33-7.41-3.75-.65-6.43-2.23-7.98-4.7-2.48-3.98-1.12-8.78-1.06-8.98l6.47-20.22c4.01-9.11,9.11-8.06,9.73-7.89,15.06,1.5,25.21-23.43,25.32-23.68,5.13-8.93,13.26-15.76,13.35-15.83,4.29-4.1,6.38-7.96,6.17-11.46-.2-3.41-2.62-5.26-2.65-5.28-8-5.93-20.09,.51-20.21,.58-6.71,3.99-13.34,3.78-15.88,3.5-1.23-.13-2.34-.58-3.22-1.32-1.04-.87-1.54-1.86-1.48-2.95,.13-2.4,2.97-4.32,3.09-4.4,9.42-5.8,9.75-10.23,9.75-10.79-.68-1.63-1.66-2.71-2.89-3.21-1.85-.75-3.74,0-4.1,.15h0c-20.95,13.05-38.18,31.44-49.83,53.18-4.37,15.13-2.33,36-2.31,36.21,.61,3.94,1.85,6.36,3.56,6.96,2.04,.71,4.27-1.29,4.29-1.31,1.63-1.56,2.94-2.06,4.01-1.53,2.79,1.4,1.83,9.95,1.71,10.92-.54,7.46,1.21,13.14,5.2,16.86,6.89,6.41,18.27,4.85,18.38,4.83,18.04-.26,21.94,4.09,22.43,4.77,6.52,5.45,13.1,5.29,13.18,5.27,1.3,.19,2.19,.78,2.75,1.75,1.68,2.88-.28,8.2-.37,8.43-2.85,8.54,4.46,16.5,4.54,16.58l11.91,12.75c6.45,5.68,13.25,3.42,13.31,3.4l2.67-1.05c1.73-.68,3.54-1.02,5.31-1.02Z" fill="#2f2e41" data-secondary="true"/>
  </g>
  <g>
    <path d="M690.36,383.28l12,143.63s1.11,24.17-17.5,36.4c-7.43,4.88-16.49,6.56-25.27,5.16-7.75-1.24-18.89-4.6-31.77-13.21-8.01-5.36-15.19-11.87-21.48-19.18l-123.36-144.4c-4.9-5.73-10.34-11.02-16.47-15.41-12.99-9.32-13.6-28.56-13.28-36.27,.09-2.16-1.08-4.17-3-5.16-3.7-1.91-10.49-4.81-19.91-6.41,0,0-15.88-1.88-19.27-11.31-.88-2.44,.88-5.06,3.47-5.27s6.58,.17,12.96,2.05c2,.59,4.02,1.11,6.06,1.55l22.29,4.83s-7.88-10.68-17.85-15.96c-2.98-1.58-6.31-2.36-9.69-2.47-6.39-.22-20.43-1.9-21.13-12.51,0,0,.18-3.26,7.78-2.89l16.83,1.63s11.48,1.31,27.31,14.07c.37,.3,.91,.27,1.24-.07h0c.39-.41,.33-1.07-.14-1.39-2.54-1.77-9.98-7.25-14.87-14.08-1.24-1.73-3.22-2.78-5.34-2.92l-19.33-1.26s-17.53-3.22-13.69-13.69c.49-1.32,1.84-2.13,3.24-2.02l32.56,2.54s8.82-.27,16.01,9.5c0,0,22.39,31.38,37.04,66.03,0,0,10.03,19.01,25.31,31.74l99.3,75.25s-5.81-73.34,69.94-68.5Z" fill="#fff"/>
    <path d="M665.59,569.45c-2.01,0-4.05-.16-6.09-.49-7.24-1.16-18.67-4.4-31.97-13.29-7.82-5.23-15.08-11.71-21.58-19.27l-123.37-144.4c-5.32-6.23-10.68-11.24-16.38-15.33-13.16-9.44-13.82-28.81-13.49-36.69,.08-1.96-.99-3.8-2.73-4.7-3.97-2.04-10.62-4.8-19.77-6.37-.64-.08-16.2-2.02-19.66-11.63-.46-1.29-.3-2.7,.46-3.87,.78-1.2,2.03-1.95,3.44-2.06,3.22-.25,7.64,.44,13.14,2.07,1.96,.58,3.99,1.1,6.02,1.54l20.94,4.54c-2.28-2.83-8.94-10.55-16.84-14.73-2.81-1.49-5.99-2.3-9.47-2.42-6.26-.21-20.88-1.9-21.61-12.97,0-.21,.31-3.81,8.3-3.43l16.85,1.63c.48,.06,11.81,1.47,27.58,14.18,.17,.14,.42,.12,.57-.03,.12-.12,.12-.26,.12-.33,0-.07-.04-.2-.18-.3-2.89-2.01-10.13-7.41-15-14.2-1.14-1.59-2.95-2.58-4.97-2.71l-19.33-1.26c-.48-.08-10.5-1.98-13.72-7.64-1.16-2.03-1.29-4.29-.4-6.72,.56-1.51,2.09-2.48,3.75-2.35l32.56,2.54c.33-.02,9.11-.17,16.38,9.7,.23,.32,22.59,31.82,37.1,66.13,.08,.15,10.14,19.03,25.17,31.55l98.43,74.59c-.21-5.79-.18-33.41,17.69-51.56,12.16-12.34,29.94-17.85,52.83-16.4,.25,.02,.45,.21,.47,.46l12,143.63c.01,.26,.91,24.62-17.73,36.86-5.73,3.76-12.5,5.72-19.54,5.72Zm-249.75-257.15c-.45,0-.88,.02-1.29,.05-1.1,.09-2.08,.67-2.68,1.61-.58,.91-.72,2-.36,2.99,3.24,9.03,18.7,10.96,18.86,10.98,9.29,1.58,16.05,4.39,20.08,6.47,2.09,1.07,3.37,3.28,3.27,5.63-.32,7.73,.31,26.69,13.07,35.84,5.77,4.14,11.18,9.2,16.56,15.49l123.36,144.4c6.44,7.49,13.63,13.92,21.38,19.09,13.15,8.79,24.42,12,31.57,13.14,8.91,1.42,17.76-.38,24.92-5.08,18.15-11.92,17.29-35.72,17.28-35.96l-11.97-143.18c-22.39-1.35-39.76,4.07-51.63,16.12-19.64,19.94-17.38,51.55-17.36,51.86,.02,.2-.08,.38-.26,.48s-.38,.08-.54-.04l-99.3-75.25c-15.2-12.66-25.35-31.72-25.45-31.91-14.48-34.24-36.78-65.66-37.01-65.97-6.93-9.41-15.5-9.3-15.59-9.29l-32.61-2.54c-1.21-.09-2.33,.6-2.73,1.69-.79,2.14-.68,4.12,.33,5.88,2.99,5.25,12.88,7.12,12.98,7.14l19.27,1.25c2.31,.15,4.4,1.29,5.71,3.13,4.91,6.85,12.53,12.42,14.75,13.96,.34,.24,.56,.61,.6,1.02,.04,.41-.1,.82-.39,1.12-.51,.53-1.35,.58-1.92,.12-15.51-12.5-26.94-13.95-27.05-13.96l-16.82-1.63c-6.9-.33-7.23,2.41-7.23,2.43,.68,10.19,14.67,11.77,20.65,11.97,3.63,.12,6.96,.97,9.9,2.53,9.96,5.27,17.94,16,18.02,16.1,.12,.17,.13,.39,.02,.57s-.32,.26-.53,.22l-22.29-4.83c-2.06-.45-4.11-.97-6.09-1.56-4.68-1.38-8.53-2.08-11.49-2.08Z" fill="#2f2e41" data-secondary="true"/>
  </g>
  <g>
    <path d="M192.98,570.44s90.66,13.04,171.01-3.64l2.1,8.49s2.99,9.32-5.7,11.76c0,0-40.98,13.94-165.24,3.12,0,0-4.69-.7-4.69-9.63v-5.46c0-1.88,.95-3.62,2.52-4.64h0Z" fill="#2f2e41" data-secondary="true"/>
    <path d="M280.31,594.75c-22.62,0-50.74-1.08-85.21-4.08-.24-.04-5.14-.88-5.14-10.13v-5.46c0-2.05,1.03-3.95,2.75-5.06l.16-.1,.19,.03c.9,.13,91.49,12.83,170.83-3.63l.47-.1,2.21,8.96c.05,.15,1.43,4.58-.55,8.26-1.07,2-2.92,3.38-5.5,4.1-.28,.09-22.15,7.22-80.21,7.22Zm-87.21-23.79c-1.35,.94-2.14,2.47-2.14,4.12v5.46c0,8.33,4.09,9.11,4.27,9.14,122.71,10.68,164.6-2.96,165-3.1,2.33-.66,3.97-1.87,4.92-3.62,1.78-3.31,.48-7.48,.47-7.52l-1.99-8.05c-77.64,16-165.79,4.23-170.52,3.57Z" fill="#2f2e41" data-secondary="true"/>
  </g>
  <g opacity=".4">
    <circle cx="509.27" cy="158.89" r="24.71" fill="#fff"/>
  </g>
  <g opacity=".4">
    <ellipse cx="450.85" cy="152.48" rx="22.87" ry="23.86" fill="#fff"/>
  </g>
  <path d="M509.27,184.1c-13.9,0-25.21-11.31-25.21-25.21s11.31-25.21,25.21-25.21,25.21,11.31,25.21,25.21-11.31,25.21-25.21,25.21Zm0-49.41c-13.35,0-24.21,10.86-24.21,24.21s10.86,24.21,24.21,24.21,24.21-10.86,24.21-24.21-10.86-24.21-24.21-24.21Z" fill="#2f2e41" data-secondary="true"/>
  <path d="M450.85,176.83c-12.89,0-23.37-10.93-23.37-24.36s10.49-24.36,23.37-24.36,23.37,10.93,23.37,24.36-10.49,24.36-23.37,24.36Zm0-47.71c-12.34,0-22.37,10.48-22.37,23.36s10.04,23.36,22.37,23.36,22.37-10.48,22.37-23.36-10.04-23.36-22.37-23.36Z" fill="#2f2e41" data-secondary="true"/>
</svg>